<svg id="Layer_1" data-name="Layer 1" xmlns="http://www.w3.org/2000/svg" width="611.2" height="320.5" viewBox="0 0 611.2 320.5"><title>Artboard 1</title><g id="quill-drawing-a-line"><path id="Path_1" data-name="Path 1" d="M119.22,279.19l14.71-8.39-4.62-11.29-14.66,3.25s-5.44,11.17-15.47,14.17C99.18,276.93,110.65,274.21,119.22,279.19Zm.16-10.71a2.75,2.75,0,0,1,1.43,3.59,2.67,2.67,0,0,1-3.52,1.39l0,0a2.76,2.76,0,0,1-1.43-3.59,2.66,2.66,0,0,1,3.5-1.4l.07,0Z" fill="#ccc"/><path id="Path_2" data-name="Path 2" d="M339.14,233.29c-41.94-5-111.38,2.25-183,20.67v0l-12.47,3.17,2.8,6.68,9.27-3.93c38.57-10.16,140.65-35.27,250.74-7.84a617.4,617.4,0,0,0,85.7,16.13c-11.1-1.23-29.29-7.23-39.82-9.84C424.73,251.44,393.87,239.88,339.14,233.29Z" fill="#ccc"/><path id="Path_3" data-name="Path 3" d="M189.58,215.35c-24.09,12.8-38.24,26.94-40.22,32.82l3.11,3.25c27.14-8.83,135.7-30.08,182.47-23.39,48.46,6.94,81.71,16.25,108.26,25.44a185.64,185.64,0,0,0,30,7.15c12.44,1.74,25.36,3.21,37.3,3.9l-29.57-6.81,20.32-3.81-30.8-.4,27-6.43c-25.17-21.93-58.53-32.7-58.53-32.7-19.11,1.21-42.81,10.15-42.81,10.15,8.17-8.31,26.36-14.81,26.36-14.81-5.95-2.37-30.41-9.61-30.41-9.61-14-1.61-33.37,12.31-33.37,12.31,5.3-7.93,23.25-15.16,23.25-15.16-34.56-10.1-72.09-5-72.09-5-32.53,9.81-40.82,35.32-40.06,27.94s16.38-20.91,16.38-20.91c-45.13-1.88-58.31,6-58.31,6-13.41,5.25-42.44,26.42-42.44,26.42.27-4.53,15.86-15.19,15.86-15.19a53.08,53.08,0,0,0-26.15,19.36C173.48,232.21,189.58,215.35,189.58,215.35Z" fill="#ccc"/><path id="Path_4" data-name="Path 4" d="M502.86,271.81a335.66,335.66,0,0,1-37.29-3.89c-31.78-4.45-60.29-10.72-60.29-10.72C299,227.43,196.19,252.6,161.4,261.7l6.43,6.71c4.18.56,9,2.75,27.62,13.51,23.47,13.59,45.6,13.92,45.6,13.92s-26.06-8-32.85-17-20.25-17-20.25-17-2.06-6,20.6,11.56,77.82,29.27,77.82,29.27-17.62-7.81-22.83-14.21-19.77-20.63-19.77-20.63c11.58,7.59,19,17.9,38.83,27.38s18.57,9.11,18.57,9.11c21.74,11.47,45.9,1.73,45.9,1.73-3.91-1.84-27.94-21.47-34.06-33.3s-23.9-24.94-23.9-24.94c19.2,10.1,20.12,15.55,23.76,19s13.91,16.12,44.21,31.72,46.57,12.68,46.57,12.68l-17.14-13.68c11.55,8.59,29.4,13.65,29.4,13.65-8.73-5.26-20.28-15.4-20.28-15.4C411,306.15,422,309.57,422,309.57c21,3.31,37.46-7.08,37.46-7.08-22.53-11.65-32.93-28-32.93-28,24.37,22.24,36.79,23,41.39,24.92S479.75,297,479.75,297c-15.83-7.87-29.59-20.79-29.59-20.79,16.39,12.54,35.94,18,35.94,18l7.45-7.14c-8.7-2.59-20.83-10.19-20.83-10.19l25,5.93C503.65,278.89,502.86,271.81,502.86,271.81Z" fill="#ccc"/><path id="Path_5" data-name="Path 5" d="M132.86,257.27,138,270.11l5.76-2.21-5.17-12.83Z" fill="#ccc"/></g><g id="Leah_Walker" data-name="Leah Walker" style="isolation:isolate"><g style="isolation:isolate"><path d="M36.46,111.42Q50,106,63.71,101.23c.94,2.67,1.88,5.33,2.81,8q-18.72,6.58-37.16,14.22L6,67q5.54-2.29,11.09-4.49Z" fill="#800020"/><path d="M101.71,69.45Q88.81,73.1,76,77.23q2.89,9,5.78,17.91,14.58-4.71,29.31-8.79c.75,2.73,1.51,5.45,2.26,8.18Q93.55,100,74,106.66L54.33,48.76q21-7.14,42.38-13.07c.77,2.76,1.53,5.51,2.3,8.26q-15.45,4.29-30.76,9.22l5.19,16.07q12.93-4.17,26-7.87C100.18,64.06,101,66.75,101.71,69.45Z" fill="#800020"/><path d="M152.63,70.25q-12.1,2.58-24.14,5.58c-.54,5-1,10-1.5,15.06q-5.49,1.41-11,2.91,3.4-32.62,8.82-65.36,5.16-1.23,10.33-2.39,19.25,27,36.6,54.86-5.58,1.05-11.14,2.2Q156.66,76.66,152.63,70.25Zm-23.15-3.49q9.12-2.24,18.28-4.23-7.29-11.39-14.87-22.65Q131,53.32,129.48,66.76Z" fill="#800020"/><path d="M227.31,72.55q-5.37.6-10.73,1.28-1.7-13.45-3.4-26.92-14.37,1.81-28.68,4.18,2.2,13.38,4.42,26.76c-3.57.6-7.14,1.21-10.71,1.86q-5.43-30.09-10.88-60.17,5.8-1,11.62-2Q181,30.08,183.1,42.64q14.47-2.4,29-4.23l-3.18-25.24q5.81-.74,11.64-1.38Q223.93,42.17,227.31,72.55Z" fill="#800020"/><path d="M309.73,53q5-23,10.53-45.92,5.83.09,11.65.27-8.75,30.32-16.28,60.81-5.17-.06-10.36,0-6-22.31-12.73-44.5-6,22.44-11.25,45c-3.46.13-6.93.28-10.39.45q-8.73-30.17-18.66-60.12,5.82-.42,11.63-.73,6.53,22.64,12.42,45.38,5.1-23.2,11-46.33,4.92-.13,9.84-.19Q303.79,30,309.73,53Z" fill="#800020"/><path d="M371.65,56.66q-12.27-1.06-24.58-1.72-3,7-5.81,14-5.62-.25-11.25-.44,12.72-30.18,27.4-59.9c3.51.22,7,.47,10.52.73q10.41,31.47,18.83,63.16-5.62-.61-11.26-1.15Q373.63,64,371.65,56.66Zm-21-10.1q9.31.52,18.6,1.3-3.6-13-7.52-26Q356,34.17,350.66,46.56Z" fill="#800020"/><path d="M405.16,66.14q14.22,1.9,28.38,4.37c-.48,2.79-1,5.57-1.45,8.36q-19.35-3.37-38.82-5.68,3.6-30.36,7.21-60.71c3.89.46,7.79.95,11.67,1.47Z" fill="#800020"/><path d="M462.86,57.89q-4.35,2.84-8.65,5.73l-3.75,18.69q-5.34-1.08-10.68-2.06,5.55-30.06,11.12-60.12,5.81,1.07,11.58,2.23l-5.64,28.12q3.81-2.94,7.66-5.85Q476.16,36.14,488.3,28q7,1.64,13.89,3.41-15.6,10-30.44,20.59,8.92,19.41,16.63,39-6.27-1.62-12.56-3.11Q469.7,72.84,462.86,57.89Z" fill="#800020"/><path d="M537.14,76.63q-12.79-4.09-25.71-7.72L506.34,87q14.71,4.14,29.29,8.89c-.88,2.69-1.76,5.37-2.63,8.06q-19.62-6.41-39.49-11.66,7.82-29.55,15.64-59.1,21.38,5.65,42.5,12.53c-.89,2.72-1.77,5.43-2.65,8.15q-15.3-5-30.74-9.32L513.7,60.82q13,3.68,26,7.81C538.85,71.29,538,74,537.14,76.63Z" fill="#800020"/><path d="M571.12,92.42q-5.94-2.22-11.89-4.34l-7.89,22.15q-5.18-1.85-10.37-3.61l19.63-57.9q11.42,3.87,22.72,8.1c7.42,2.77,12.56,6.5,15.36,11s3,9.59.76,15.14a16.41,16.41,0,0,1-6.88,8.29,20.72,20.72,0,0,1-10.63,2.62q2.24,14.55,4,29l-.21.51q-5.46-2.27-11-4.44Q573.13,105.73,571.12,92.42ZM562.1,80q5.56,2,11.09,4t9.47.71a9.12,9.12,0,0,0,5.77-5.71,9.49,9.49,0,0,0-.1-8.2c-1.28-2.41-3.83-4.39-7.66-5.88S572.88,62.09,569,60.7Q565.55,70.36,562.1,80Z" fill="#800020"/></g></g><g id="Creative_Copywriter" data-name="Creative Copywriter" style="isolation:isolate"><g style="isolation:isolate"><path d="M127.13,157.73a11.5,11.5,0,0,1-1.09,8.88c-1.54,2.59-4.09,4.55-7.68,5.93a14.2,14.2,0,0,1-7.3.91,12.45,12.45,0,0,1-6.37-3,17.81,17.81,0,0,1-4.6-6.5c-.39-.92-.77-1.84-1.15-2.76a17,17,0,0,1-1.4-8.05,12.28,12.28,0,0,1,2.76-6.85,15.19,15.19,0,0,1,6.55-4.57c3.7-1.42,7-1.63,9.93-.65a11.36,11.36,0,0,1,6.66,6.23q-2.86,1-5.72,2.07a7.45,7.45,0,0,0-3.81-3.9,7.84,7.84,0,0,0-5.46.43,7.47,7.47,0,0,0-4.8,4.72c-.68,2.17-.39,4.85.85,8l1,2.64c1.29,3.21,2.9,5.41,4.8,6.61a6.81,6.81,0,0,0,6.4.43,8.12,8.12,0,0,0,4.38-3.24,7.49,7.49,0,0,0,.4-5.37C123.39,159.07,125.26,158.39,127.13,157.73Z" fill="#800020"/><path d="M141.75,143.86a15.5,15.5,0,0,0-2.31.56q-3.81,1.23-4.23,4.34,2.56,7.73,5.14,15.43-2.67.88-5.32,1.81-3.89-11.25-7.76-22.48,2.65-.92,5.31-1.8c.33.82.66,1.65,1,2.48a6.67,6.67,0,0,1,4.63-4.78,5.82,5.82,0,0,1,2.07-.34C140.76,140.67,141.25,142.27,141.75,143.86Z" fill="#800020"/><path d="M161.5,158.09a12.18,12.18,0,0,1-9.21-.61,11.37,11.37,0,0,1-5.71-7.14l-.2-.63a13.34,13.34,0,0,1-.47-6.52,10.6,10.6,0,0,1,2.76-5.4,11.75,11.75,0,0,1,5.38-3.21c3.41-1,6.34-.72,8.74.77s4.07,4.07,5,7.72l.56,2.08q-8,2.15-16,4.53a7,7,0,0,0,3.34,3.86,6.56,6.56,0,0,0,4.89.37,7.94,7.94,0,0,0,5.29-4.57l3.66,1.86a10.17,10.17,0,0,1-3,4.24A13.31,13.31,0,0,1,161.5,158.09Zm-6.29-19.38a5.06,5.06,0,0,0-3.27,2.56,7.55,7.55,0,0,0-.56,4.64q5.25-1.59,10.52-3l-.1-.38a6.17,6.17,0,0,0-2.58-3.49A5.05,5.05,0,0,0,155.21,138.71Z" fill="#800020"/><path d="M189.65,150.4a7.84,7.84,0,0,1-1.13-2,9,9,0,0,1-5.75,4.09,9.17,9.17,0,0,1-6.43-.51,6.44,6.44,0,0,1-3.57-4.3,6.54,6.54,0,0,1,1.47-6.4c1.62-1.81,4.27-3.17,7.93-4l3.43-.8-.35-1.52a4,4,0,0,0-1.75-2.63,4.66,4.66,0,0,0-3.57-.3,5.36,5.36,0,0,0-2.94,1.65,2.74,2.74,0,0,0-.68,2.55c-1.86.46-3.73.93-5.59,1.41a5.63,5.63,0,0,1,.45-3.89,9.21,9.21,0,0,1,3.08-3.53,14.14,14.14,0,0,1,5.06-2.22,11.3,11.3,0,0,1,7.55.41,7.15,7.15,0,0,1,4,5.17L193.11,144a11.77,11.77,0,0,0,2,4.81l.07.36Q192.43,149.77,189.65,150.4Zm-6.87-2.34a6.78,6.78,0,0,0,2.87-1.47,5.35,5.35,0,0,0,1.7-2.51c-.34-1.46-.67-2.92-1-4.37l-3,.69a8.73,8.73,0,0,0-4.38,2.12,3.28,3.28,0,0,0-.85,3.22,3,3,0,0,0,1.64,2.11A4.35,4.35,0,0,0,182.78,148.06Z" fill="#800020"/><path d="M201.26,117.77c.37,1.89.73,3.79,1.09,5.68l4.5-.85.72,3.89-4.47.84q1.26,6.53,2.51,13a2.81,2.81,0,0,0,.93,1.83,2.78,2.78,0,0,0,2.1.22,9.11,9.11,0,0,0,1.89-.58c.24,1.36.49,2.71.74,4.06a14.66,14.66,0,0,1-3.51,1.18c-4.19.8-6.74-1-7.65-5.42s-1.79-8.8-2.68-13.2c-1.39.29-2.77.57-4.15.87-.28-1.29-.55-2.58-.82-3.87,1.39-.3,2.78-.59,4.18-.87q-.58-2.83-1.15-5.66Q198.37,118.32,201.26,117.77Z" fill="#800020"/><path d="M210.17,115.73a2.67,2.67,0,0,1,.5-2.16,4.12,4.12,0,0,1,4.87-.82,2.67,2.67,0,0,1,1.2,1.87,2.62,2.62,0,0,1-.54,2.13,4.2,4.2,0,0,1-4.84.82A2.66,2.66,0,0,1,210.17,115.73Zm11,28.51q-2.74.45-5.49.93-2-11.7-4.09-23.42l5.74-1Z" fill="#800020"/><path d="M234.89,135.36q1.49-8.79,3.15-17.56,3-.37,6-.71-3.1,12.31-5.83,24.66c-1.59.2-3.19.42-4.78.64q-5.92-11.17-12.23-22.22,3-.47,6-.9Q231.08,127.28,234.89,135.36Z" fill="#800020"/><path d="M261,139.73a12.08,12.08,0,0,1-8.84-2.38,11.42,11.42,0,0,1-4.19-8.12l-.08-.66a13.33,13.33,0,0,1,.79-6.48,10.57,10.57,0,0,1,3.7-4.76,11.56,11.56,0,0,1,5.85-2.11c3.51-.3,6.31.52,8.36,2.45s3.19,4.77,3.44,8.54c0,.72.09,1.44.14,2.15-5.47.37-10.95.82-16.41,1.35a7,7,0,0,0,2.51,4.44,6.39,6.39,0,0,0,4.69,1.3,7.84,7.84,0,0,0,6-3.45c1.08.84,2.15,1.68,3.21,2.53a10.22,10.22,0,0,1-3.74,3.58A13.26,13.26,0,0,1,261,139.73Zm-2.42-20.24a5,5,0,0,0-3.68,1.88,7.7,7.7,0,0,0-1.43,4.44q5.41-.53,10.83-1l0-.39a6.17,6.17,0,0,0-1.84-3.92A5,5,0,0,0,258.58,119.49Z" fill="#800020"/><path d="M312.81,127a11.55,11.55,0,0,1-4.05,8,14.1,14.1,0,0,1-9.12,2.89,13.78,13.78,0,0,1-7-1.68,12.44,12.44,0,0,1-4.86-5,18,18,0,0,1-2-7.69c0-1-.07-2-.11-3a17.37,17.37,0,0,1,1.45-8A12.29,12.29,0,0,1,292,107a14.83,14.83,0,0,1,7.6-2c3.9,0,7,.92,9.39,2.84a11.42,11.42,0,0,1,4,8.16c-2,0-4,0-6,0a7.48,7.48,0,0,0-2.18-5,7.62,7.62,0,0,0-5.19-1.5,7.24,7.24,0,0,0-6,2.75c-1.38,1.8-2,4.41-2,7.83,0,.94,0,1.89.08,2.83q.13,5.19,2.16,7.87a6.63,6.63,0,0,0,5.75,2.63,7.89,7.89,0,0,0,5.15-1.51,7.53,7.53,0,0,0,2.2-4.9C308.9,127,310.85,127,312.81,127Z" fill="#800020"/><path d="M316.5,125.38a13.08,13.08,0,0,1,1.62-6.26,10.12,10.12,0,0,1,4.31-4.19,12.38,12.38,0,0,1,6.3-1.28A11.12,11.12,0,0,1,340,125.58l-.05,1.25a13.68,13.68,0,0,1-1.82,6.19,10.42,10.42,0,0,1-4.29,4,12.12,12.12,0,0,1-6.11,1.22,11.13,11.13,0,0,1-8.26-3.63,12.61,12.61,0,0,1-3-9Zm5.66.61a9.27,9.27,0,0,0,1.41,5.79,5.32,5.32,0,0,0,4.35,2.25,5.26,5.26,0,0,0,4.5-1.91,10.13,10.13,0,0,0,1.91-6.08,9,9,0,0,0-1.35-5.79,5.43,5.43,0,0,0-4.43-2.32,5.37,5.37,0,0,0-4.55,1.91Q322.28,121.85,322.16,126Z" fill="#800020"/><path d="M366.77,129.24a13.87,13.87,0,0,1-3.61,8.45,8.61,8.61,0,0,1-7.31,2.54,8.74,8.74,0,0,1-6.27-3.14q-.46,5.61-.94,11.23l-5.44-.43q1.2-16.41,2.41-32.82c1.78.13,3.56.26,5.33.41,0,.81,0,1.62,0,2.43a8.7,8.7,0,0,1,7.17-2.22,9,9,0,0,1,7,4q2.29,3.52,1.63,9.24Zm-5.58-1.08a9.32,9.32,0,0,0-.92-5.77,5,5,0,0,0-4.15-2.5,5.31,5.31,0,0,0-5.28,2.24q-.45,5.27-.88,10.51a5.28,5.28,0,0,0,4.72,3.2A4.93,4.93,0,0,0,359,134.2C360.18,132.94,360.91,130.93,361.19,128.16Z" fill="#800020"/><path d="M379.75,134.93q3.66-7.62,7.46-15.21,3.07.47,6.13,1-7.27,12.69-14.06,25.55c-2,3.74-4.81,5.37-8.32,4.92a10.07,10.07,0,0,1-2.56-.72l.51-4.12,1,.19a5.45,5.45,0,0,0,3.21-.33,4.84,4.84,0,0,0,2-2.23l1.07-1.91q-2.71-12.3-5.83-24.58,3.12.36,6.22.77Q378.25,126.58,379.75,134.93Z" fill="#800020"/><path d="M415.6,141.54q3.66-7.6,7.44-15.18,2.77.6,5.55,1.25-6.12,10.79-11.95,21.68l-4.49-.95q-.94-8.53-2.06-17.08-4.21,7.49-8.29,15l-4.51-.82q-1.26-12.3-2.82-24.6c1.87.3,3.73.62,5.6.95q.66,8.36,1.19,16.71,4-7.51,8.16-15l4.3.85Q414.76,133,415.6,141.54Z" fill="#800020"/><path d="M444.35,136.54a14.4,14.4,0,0,0-2.24-.77q-3.86-1-5.88,1.4-2,7.89-3.94,15.78c-1.8-.45-3.61-.9-5.42-1.33q2.76-11.56,5.51-23.12c1.81.43,3.61.87,5.42,1.32l-.51,2.61a6.62,6.62,0,0,1,6.44-1.55,5.89,5.89,0,0,1,1.93.82C445.22,133.31,444.79,134.92,444.35,136.54Z" fill="#800020"/><path d="M450.8,126.82a2.66,2.66,0,0,1,1.37-1.74,4.19,4.19,0,0,1,4.79,1.34,2.78,2.78,0,0,1-1.1,3.9,3.56,3.56,0,0,1-2.6.1A3.49,3.49,0,0,1,451.1,129,2.66,2.66,0,0,1,450.8,126.82Zm-2.14,30.5c-1.8-.51-3.59-1-5.39-1.51q3.12-11.46,6.26-22.93,2.82.76,5.63,1.57Q451.91,145.88,448.66,157.32Z" fill="#800020"/><path d="M470,132.85c-.57,1.84-1.15,3.68-1.72,5.52,1.47.45,2.93.92,4.39,1.39l-1.2,3.76-4.37-1.38q-2,6.35-3.95,12.67a2.83,2.83,0,0,0,0,2.05,2.76,2.76,0,0,0,1.76,1.19,8.87,8.87,0,0,0,2,.39l-1.26,3.93a15,15,0,0,1-3.67-.63c-4.11-1.29-5.52-4.06-4.22-8.4l3.87-12.9-4.09-1.21,1.11-3.8,4.11,1.22c.56-1.84,1.11-3.69,1.66-5.53Q467.2,132,470,132.85Z" fill="#800020"/><path d="M479.8,167.7a12.26,12.26,0,0,1-7.17-5.85,11.33,11.33,0,0,1-.51-9.14l.2-.63a13.26,13.26,0,0,1,3.4-5.57,10.64,10.64,0,0,1,5.39-2.8,11.88,11.88,0,0,1,6.27.52c3.36,1.19,5.61,3.11,6.71,5.72s1,5.68-.36,9.22l-.75,2q-7.83-2.93-15.72-5.62a7,7,0,0,0,.48,5.09,6.54,6.54,0,0,0,3.79,3.14,8,8,0,0,0,7-.63c.65,1.22,1.29,2.43,1.92,3.65a10.31,10.31,0,0,1-4.94,1.69A13.53,13.53,0,0,1,479.8,167.7Zm6.13-19.44a5.08,5.08,0,0,0-4.16.18,7.5,7.5,0,0,0-3.16,3.45q5.2,1.77,10.38,3.65l.14-.37a6.13,6.13,0,0,0-.09-4.34A5,5,0,0,0,485.93,148.26Z" fill="#800020"/><path d="M512.94,159.71a15.82,15.82,0,0,0-2.14-1.07c-2.49-1-4.52-.82-6.07.59l-6,15.11c-1.75-.7-3.51-1.38-5.26-2.06L502,150.09l5.25,2c-.29.85-.57,1.69-.85,2.53a6.72,6.72,0,0,1,6.65-.66,6.16,6.16,0,0,1,1.82,1.08Q513.91,157.4,512.94,159.71Z" fill="#800020"/></g></g></svg>