<?xml version="1.0" standalone="no"?>
<!DOCTYPE svg PUBLIC "-//W3C//DTD SVG 20010904//EN"
 "http://www.w3.org/TR/2001/REC-SVG-20010904/DTD/svg10.dtd">
<svg version="1.0" xmlns="http://www.w3.org/2000/svg"
 width="671.000000pt" height="671.000000pt" viewBox="0 0 671.000000 671.000000"
 preserveAspectRatio="xMidYMid meet">
<metadata>
Created by potrace 1.11, written by Peter Selinger 2001-2013
</metadata>
<g transform="translate(0.000000,671.000000) scale(0.100000,-0.100000)"
fill="#000000" stroke="none">
<path d="M5788 6095 c-2 -1 -47 -5 -102 -9 -54 -3 -101 -8 -105 -10 -3 -2 -35
-7 -70 -10 -148 -16 -435 -81 -648 -148 l-133 -41 -82 -86 c-136 -142 -240
-274 -373 -477 -42 -62 -77 -114 -79 -114 -7 0 14 82 41 160 27 80 120 279
159 342 13 21 21 38 16 38 -9 0 -309 -112 -357 -134 -16 -7 -79 -33 -140 -57
-97 -38 -117 -51 -170 -104 -100 -99 -170 -217 -245 -412 -24 -62 -45 -112
-46 -110 -1 1 2 27 7 59 13 83 61 223 118 343 27 58 47 105 44 105 -10 0 -316
-154 -356 -180 -23 -15 -73 -46 -111 -70 -218 -135 -476 -339 -656 -520 -126
-126 -218 -304 -273 -531 -32 -131 -40 -202 -40 -358 0 -121 0 -123 -18 -100
-31 42 -39 98 -35 249 3 80 7 159 10 175 14 75 16 95 10 95 -4 0 -58 -38 -118
-84 -245 -186 -482 -408 -608 -571 -104 -133 -179 -292 -276 -580 -63 -187
-152 -480 -152 -503 -1 -15 -2 -15 -12 2 -10 18 -6 125 8 187 3 13 7 35 10 47
3 13 12 49 20 80 29 109 28 117 -8 50 -85 -161 -124 -302 -133 -473 -3 -44 -5
-84 -5 -90 -1 -20 -20 24 -26 61 -9 53 -11 231 -4 334 4 47 5 86 4 88 -8 12
-148 -385 -169 -478 -2 -8 -11 -48 -20 -88 -40 -172 -56 -415 -30 -441 6 -5
28 -12 51 -15 40 -6 41 -6 80 51 37 55 271 363 283 373 3 3 44 52 91 110 110
137 94 117 276 330 86 102 164 192 173 201 9 9 45 49 81 89 213 238 312 343
585 615 252 253 381 376 500 476 22 19 46 39 53 46 7 7 34 29 60 50 26 21 49
41 52 44 11 12 208 158 265 196 157 105 592 347 890 496 174 86 473 230 485
232 3 0 28 11 55 24 90 41 356 148 525 211 405 151 570 232 905 440 365 228
489 318 335 242 -53 -26 -152 -74 -220 -106 -69 -33 -147 -70 -175 -84 l-50
-24 21 23 c11 13 65 76 120 139 155 178 167 184 -198 -102 -76 -59 -138 -106
-138 -103 0 3 70 94 155 202 85 109 155 201 155 205 0 6 -255 9 -262 3z"/>
<path d="M6415 5756 c-70 -53 -261 -179 -410 -270 -88 -53 -167 -101 -175
-106 -8 -5 -31 -18 -50 -29 -19 -10 -105 -59 -190 -108 -202 -117 -244 -140
-555 -306 -151 -80 -363 -184 -465 -228 -67 -29 -359 -175 -455 -227 -157 -86
-196 -109 -345 -200 -140 -86 -431 -277 -470 -308 -8 -7 -80 -61 -160 -120
-119 -88 -381 -293 -400 -314 -3 -3 -50 -43 -105 -90 -55 -46 -102 -87 -105
-90 -3 -3 -52 -48 -110 -100 -134 -120 -517 -503 -640 -640 -52 -58 -100 -109
-106 -115 -58 -53 -423 -498 -593 -723 l-90 -119 88 -13 c83 -12 92 -11 147 9
51 20 151 46 209 56 65 12 144 25 170 29 354 57 467 85 660 163 130 53 395
199 395 218 0 3 -8 1 -17 -5 -29 -16 -231 -79 -338 -106 -179 -44 -280 -49
-425 -21 -65 13 -126 16 -260 13 -96 -2 -183 -7 -193 -11 -12 -5 -17 -2 -17 8
0 22 51 36 188 52 24 3 110 8 190 10 219 8 279 15 451 56 145 34 254 66 396
115 96 34 110 39 165 62 14 5 41 16 60 23 146 53 613 265 560 254 -240 -51
-421 -67 -520 -47 -30 6 -73 14 -95 17 -23 3 -50 7 -62 9 -12 3 -50 7 -85 10
-34 3 -72 8 -83 10 -11 2 -54 7 -95 11 -41 4 -77 9 -79 11 -2 2 124 4 280 4
156 0 298 2 314 4 17 2 59 7 95 11 36 4 72 9 80 10 18 4 314 70 430 96 47 11
101 22 120 25 119 19 301 106 423 203 86 69 206 195 264 279 l42 60 -157 -1
c-148 -1 -336 8 -427 20 -128 17 -261 44 -326 68 -98 36 -192 63 -242 71 -23
3 -44 7 -47 9 -10 6 -207 22 -315 25 -65 2 -67 3 -30 10 142 29 334 29 444 0
51 -13 82 -18 175 -27 147 -14 518 -8 622 11 10 2 46 7 79 11 178 21 464 85
634 141 206 70 438 192 511 269 l23 25 -174 1 -174 1 95 18 c52 10 113 23 135
29 22 6 45 11 50 12 20 3 240 81 248 89 4 4 -13 4 -38 0 -52 -8 -392 -14 -385
-7 3 3 30 8 60 11 162 19 381 70 455 106 117 58 276 208 375 355 72 108 133
241 102 221 -5 -3 -31 -8 -58 -12 -27 -3 -58 -9 -69 -11 -11 -3 -108 -7 -215
-9 -171 -2 -244 2 -348 21 -14 2 -45 7 -69 11 -24 3 -42 8 -40 11 3 2 98 6
213 8 115 2 220 6 234 8 14 2 49 8 79 12 80 10 214 48 321 89 102 39 152 81
191 158 20 39 25 63 11 54 -8 -5 -17 -7 -112 -21 -25 -4 -53 -9 -62 -10 -36
-7 -199 -17 -321 -19 -161 -4 -163 2 -7 19 130 14 302 55 472 113 l106 36 6
41 c3 22 9 65 12 95 4 30 8 58 11 63 6 10 -11 9 -43 -3 -37 -15 -161 -47 -204
-54 -19 -3 -45 -8 -57 -10 -11 -3 -43 -7 -70 -10 -48 -6 -47 -6 47 41 53 27
150 74 217 106 67 32 123 63 126 70 11 29 -1 125 -21 163 -31 61 -42 67 -77
40z"/>
<path d="M6079 5620 c-53 -28 -196 -92 -317 -145 -181 -77 -417 -180 -597
-260 -16 -8 -59 -26 -95 -40 -422 -173 -1040 -471 -1275 -615 -17 -11 -42 -25
-56 -32 -78 -41 -401 -241 -501 -311 -217 -152 -452 -342 -697 -564 -248 -225
-778 -774 -1031 -1069 -226 -263 -359 -428 -685 -849 -104 -135 -164 -220
-157 -226 4 -3 32 -20 63 -37 l56 -32 20 38 c11 20 35 64 53 96 18 33 37 64
42 70 5 6 54 72 110 146 89 118 382 486 397 500 3 3 33 37 66 75 306 358 677
741 985 1015 47 41 105 93 130 116 44 40 139 120 235 199 60 49 321 253 359
280 16 11 40 29 55 40 94 74 380 267 561 380 267 166 659 377 890 480 302 135
734 351 962 481 42 24 79 44 82 44 3 0 101 57 218 126 268 159 296 181 127 94z"/>
<path d="M522 1428 c-35 -60 -40 -52 68 -110 36 -20 82 -46 103 -58 42 -25 43
-25 81 41 l26 45 -119 67 c-65 37 -121 67 -124 67 -3 0 -19 -23 -35 -52z"/>
<path d="M370 1182 l-84 -106 -1 -131 c-1 -138 -16 -208 -58 -270 -15 -21 -4
-15 35 22 76 71 166 127 237 149 l59 17 59 150 c32 83 59 153 61 157 5 12
-188 121 -211 119 -6 0 -50 -48 -97 -107z m105 -172 c27 -29 10 -74 -28 -78
-49 -6 -78 38 -50 77 18 27 55 27 78 1z"/>
</g>
</svg>
