<svg id="Layer_1" data-name="Layer 1" xmlns="http://www.w3.org/2000/svg" width="500" height="413" viewBox="0 0 500 413"><title>Artboard 1 copy 2</title><path d="M252.34,28.16q0,22.62-14.69,47.32t-40.56,43q-25.87,18.33-53.43,23-15.85,32-22.88,44.72l-5.46,8.84q51.48,12.73,85.28,38.74,17.16,13.26,23.14,32.5,3.12,9.87,3.12,16.9a23.66,23.66,0,0,1-2.73,11.83,15.79,15.79,0,0,1-6.37,6.63q-3.64,1.81-5.2,1.82c-1,0-1.56-.44-1.56-1.3s1-3.43,3-7.67a34.92,34.92,0,0,0,3-14.95,57.85,57.85,0,0,0-3.64-19q-3.65-10.41-13.52-19.11t-27.43-16.38A201.91,201.91,0,0,0,142,214.19q-12.87-3.25-34.45-7.41-22.09,30.93-46,42.38-14.3,7-25.35,7a42.33,42.33,0,0,1-19.63-4.42Q1.7,244.47,1.7,229.66t19.5-26q22.1-13,59.8-13a130.9,130.9,0,0,1,24.44,2.08q11.7-18.19,27.3-50.18h-2.86a83.21,83.21,0,0,1-30.42-5.46q-14-5.46-22.36-14.82Q66.18,110.06,66.18,94.72a44.24,44.24,0,0,1,4-17.42q4-9.36,17.94-19t35.23-14.56A26.15,26.15,0,0,1,129.1,43c1.56,0,2.51.43,2.86,1.3s-.35,1.65-2.08,2.34a27.68,27.68,0,0,1-6,1.56,48,48,0,0,0-20.8,7.54Q86.47,66.38,80,88.48a34.79,34.79,0,0,0-1.56,10,45.82,45.82,0,0,0,1.82,11.57Q82,116.82,88,124a31.55,31.55,0,0,0,16.25,10,68.06,68.06,0,0,0,17.94,2.86,119.35,119.35,0,0,0,14.17-.78l22.1-55.64q22.88-58.75,54.6-72.28a43.07,43.07,0,0,1,16.25-3.38,25.65,25.65,0,0,1,15.08,5.07q7.16,5.07,7.67,12.35Q252.33,25.3,252.34,28.16Zm-155,177.06a119.32,119.32,0,0,0-26.26-2.86,105.52,105.52,0,0,0-27.82,3.9q-29.89,7.8-35.1,22.1a13.36,13.36,0,0,0-1,4.94q0,6.75,7.41,11a31.87,31.87,0,0,0,16.25,4.29q12.23,0,26.52-6.76Q78.93,231.47,97.38,205.22Zm144-176.8q0-9.89-9.1-9.88-13.26,0-32.24,23.14-14.82,18.47-28.47,44.59T147.3,134.5q36.13-8.06,65.13-39.65T241.42,28.42Z" fill="#000333"/><path d="M365.2,364.78q0,24.71,20,24.7,18.72,0,46.28-22.1,30.17-23.92,41.34-50.44,12.74-29.9,12.74-51t-8.45-31.72q-8.44-10.66-23.27-10.66a50.74,50.74,0,0,0-7,.52,42.62,42.62,0,0,1-9.23,1.56c-2,0-3-.52-3-1.56q0-2.34,4.81-4.42c3.21-1.39,5.63-2.08,7.28-2.08h7.67q14.82,0,27.17,11.7t16,34.32a79,79,0,0,1,.78,11.18q0,19.24-9.1,43.68-12.74,32.24-43.81,54.86T388.34,396q-27,0-33.28-25-1.81-6.5-1.82-17.68t5.46-29.12q-14,23.4-36.4,50.7a155,155,0,0,1-25,24.18q-13.51,10.14-22.88,10.14-18.47,0-18.46-22.36,0-26.25,34.06-107.12,21.32-51.48,21.32-77.22,0-16.64-10-23t-23.79-6.37a63.34,63.34,0,0,0-12.48,1.3q-46,9.36-81.64,49.66Q165.77,244.4,159,263t-7.67,27.56q-.91,9-.91,14.82a48.45,48.45,0,0,0,2.21,13.39,38.49,38.49,0,0,0,7.67,14q10.14,11.7,28.34,11.7,30.17,0,47.84-31.46,9.1-16.12,9.1-29.12,0-21.32-19-21.32a49,49,0,0,0-7.8.78q-4.68.78-4.42-1t7-3.9a45.65,45.65,0,0,1,13.52-2.08q13.51,0,19.76,10.4a29.25,29.25,0,0,1,3.9,15.34q0,8.83-4.94,20.54-13.26,30.42-47.58,44.72a43.17,43.17,0,0,1-16.9,3.9q-25.49,0-40.56-18.2Q138,320.58,135.1,300.82a60.31,60.31,0,0,1-.52-8.06q0-16.63,8.45-36a138.59,138.59,0,0,1,23-36,154,154,0,0,1,31.72-27.82A204.61,204.61,0,0,1,233.9,174.2q19.75-7.55,36.66-7.54a86.24,86.24,0,0,1,30.68,5.2q25,10.92,25,41.86,0,25.49-17.42,65-12,26.77-22.88,57.46-15.6,43.68-15.6,56.94,0,9.36,6.5,9.36,3.38,0,8.06-3.12,14-8.33,30.68-31.46t34.58-53.82Q368.06,283.4,375.6,273t13-10.4a7.13,7.13,0,0,1,2.6.52q3.38,1.81,3.38,7a28.75,28.75,0,0,1-1.43,9.36q-1.42,4.17-13.39,33.15T366.5,350.87A108.54,108.54,0,0,0,365.2,364.78Z" fill="#000333"/></svg>