<?xml version="1.0" standalone="no"?>
<!DOCTYPE svg PUBLIC "-//W3C//DTD SVG 20010904//EN"
 "http://www.w3.org/TR/2001/REC-SVG-20010904/DTD/svg10.dtd">
<svg version="1.0" xmlns="http://www.w3.org/2000/svg"
 width="1000.000000pt" height="1000.000000pt" viewBox="0 0 1000.000000 1000.000000"
 preserveAspectRatio="xMidYMid meet">
<metadata>
Created by potrace 1.11, written by Peter Selinger 2001-2013
</metadata>
<g transform="translate(0.000000,1000.000000) scale(0.100000,-0.100000)"
fill="#000000" stroke="none">
<path d="M4415 9325 c-202 -44 -389 -159 -580 -356 -186 -192 -326 -401 -485
-724 -84 -169 -340 -794 -595 -1452 l-28 -72 -46 -7 c-25 -4 -118 -7 -206 -7
-177 0 -301 20 -446 73 -259 94 -423 326 -454 640 -17 172 82 458 226 650 161
216 380 347 662 395 112 20 177 46 177 72 0 53 -60 56 -242 9 -382 -98 -653
-245 -866 -470 -61 -66 -92 -108 -122 -169 -132 -275 -116 -567 45 -812 51
-77 193 -219 270 -270 150 -99 375 -187 565 -220 52 -9 155 -19 228 -22 l132
-6 -129 -251 c-174 -339 -386 -716 -412 -732 -5 -3 -67 3 -137 12 -172 23
-553 24 -747 1 -365 -44 -644 -135 -870 -285 -116 -76 -175 -129 -230 -206
-60 -85 -86 -155 -92 -251 -16 -241 130 -421 420 -518 88 -30 99 -31 257 -31
151 0 172 2 255 28 293 89 537 239 784 480 126 123 285 306 356 408 22 32 47
57 57 58 24 0 436 -85 599 -124 165 -40 280 -76 425 -131 l102 -39 -78 -100
c-240 -312 -409 -657 -486 -993 -35 -157 -44 -375 -20 -515 79 -465 351 -810
731 -927 216 -67 431 -66 625 4 271 98 508 252 705 456 160 167 284 368 353
574 45 135 56 199 55 315 0 87 -5 119 -27 184 -61 179 -166 276 -340 313 -85
18 -209 12 -318 -16 -40 -11 -73 -18 -73 -17 0 0 -13 26 -29 56 -112 212 -277
377 -579 579 l-108 72 42 50 c23 28 94 100 158 160 423 397 858 633 1382 751
145 32 405 32 521 0 177 -48 306 -139 361 -252 92 -189 72 -532 -59 -988 -79
-274 -182 -554 -404 -1092 -279 -678 -467 -1227 -546 -1595 -24 -112 -28 -153
-28 -300 -1 -154 1 -176 23 -240 32 -91 109 -172 191 -201 85 -29 215 -26 309
8 167 61 346 192 582 428 242 241 519 591 792 1000 71 107 127 184 123 170
-69 -255 -90 -414 -83 -600 16 -391 164 -635 441 -727 76 -25 93 -27 261 -27
201 -1 269 9 453 70 313 102 734 371 1019 651 302 297 499 623 622 1033 136
449 146 810 32 1150 -58 171 -123 282 -235 399 -125 129 -246 202 -405 242
-70 18 -106 20 -235 17 l-152 -3 -80 -40 c-61 -31 -81 -47 -89 -68 -8 -24 -6
-31 10 -43 25 -19 62 -17 174 6 113 24 269 26 359 5 157 -37 297 -152 370
-305 140 -294 130 -719 -27 -1199 -78 -235 -176 -459 -264 -601 -231 -371
-728 -830 -1127 -1039 -209 -109 -341 -146 -508 -139 -135 5 -191 28 -261 103
-102 113 -132 291 -96 582 25 200 78 359 318 943 212 518 234 576 247 662 24
161 -23 246 -130 236 -135 -13 -272 -198 -745 -998 -632 -1072 -1001 -1551
-1344 -1747 -64 -37 -84 -43 -132 -43 -47 0 -60 4 -83 26 -53 54 -58 167 -16
369 79 386 363 1192 678 1925 157 368 203 484 266 677 55 168 98 341 122 490
24 145 24 417 0 522 -88 389 -324 595 -776 677 -118 22 -374 29 -495 15 -279
-33 -574 -130 -901 -296 -335 -171 -581 -344 -817 -571 l-99 -95 -135 61
c-267 122 -565 229 -835 301 -71 19 -128 36 -128 39 0 3 35 65 78 137 43 72
168 308 277 525 109 216 199 394 199 395 1 1 47 12 101 23 150 32 384 114 532
185 913 438 1569 1338 1541 2112 -3 101 -8 126 -31 176 -46 101 -163 192 -296
231 -66 19 -220 20 -306 1z m323 -285 c34 -15 47 -29 64 -67 19 -43 20 -59 15
-193 -19 -473 -232 -896 -671 -1336 -255 -254 -443 -391 -721 -525 -153 -74
-234 -104 -374 -143 l-92 -25 7 22 c20 66 483 967 611 1190 160 279 373 582
539 764 240 264 472 381 622 313z m-3027 -3675 c69 -8 148 -19 177 -26 l53
-11 -37 -51 c-108 -152 -266 -324 -398 -436 -217 -184 -470 -311 -707 -356
-102 -19 -255 -19 -337 0 -74 18 -188 73 -236 115 -127 112 -88 318 88 461 73
59 265 156 391 198 133 43 325 88 445 105 140 19 406 19 561 1z m2134 -650
c184 -122 316 -267 391 -429 58 -126 86 -252 91 -411 6 -165 -5 -224 -67 -365
-64 -145 -47 -176 70 -124 133 60 210 201 210 387 0 86 -27 237 -60 331 -11
33 -20 63 -20 68 0 14 154 9 210 -8 162 -48 235 -174 234 -404 -1 -218 -80
-437 -250 -695 -129 -195 -268 -322 -449 -410 -163 -79 -215 -90 -430 -90
-160 0 -188 3 -255 23 -241 75 -405 257 -477 530 -46 174 -33 472 32 717 97
371 254 695 466 961 l51 65 86 -46 c48 -26 123 -70 167 -100z"/>
</g>
</svg>
